# xmcd
#
# Track frame offsets:
#	150
#	17359
#	40635
#	58757
#	73635
#	88838
#	104522
#	121468
#	146075
#	160743
#	190758
#
# Disc length: 2749 seconds
#
# Revision: 0
# Processed by: cddbd v1.5.2PL0 Copyright (c) Steve Scherf et al.
# Submitted via: audiograbber 1.83.01
#
DISCID=920abb0b
DTITLE=Julien Clerc - Vendredi 13 Vol 1
DYEAR=1981
DGENRE=Chanson francaise
TTITLE0=Elle voulait qu'on l'appelle Venise
TTITLE1=Je sais que c'est elle
TTITLE2=Ma Doudou
TTITLE3=Je dors avec elle
TTITLE4=Danse s'y
TTITLE5=Week end
TTITLE6=Elle faisait la la la
TTITLE7=La petite sorciere malade
TTITLE8=Ivanovitch
TTITLE9=L'assassin assassine
TTITLE10=Ma preference
EXTD=
EXTT0=
EXTT1=
EXTT2=
EXTT3=
EXTT4=
EXTT5=
EXTT6=
EXTT7=
EXTT8=
EXTT9=
EXTT10=
PLAYORDER=
